<svg xmlns="http://www.w3.org/2000/svg" version="1.1" width="0" height="0" viewBox="0 0 200 200" style="position: absolute; margin-left: -100%;">
  <defs>
    <linearGradient id="redyel" gradientUnits="objectBoundingBox" x1="0" y1="0" x2="0" y2="1">
        <stop offset="0%" stop-color="#ff0000"/>   
        <stop offset="100%" stop-color="#ffff00"/>   
    </linearGradient>
    <linearGradient id="yelgre" gradientUnits="objectBoundingBox" x1="0" y1="0" x2="0" y2="1">
        <stop offset="0%" stop-color="#ffff00"/>   
        <stop offset="100%" stop-color="#00ff00"/>   
    </linearGradient>
    <linearGradient id="grecya" gradientUnits="objectBoundingBox" x1="0" y1="0" x2="0" y2="1">
        <stop offset="0%" stop-color="#00ff00"/>   
        <stop offset="100%" stop-color="#00ffff"/>   
    </linearGradient>
    <linearGradient id="cyablu" gradientUnits="objectBoundingBox" x1="0" y1="0" x2="0" y2="1">
        <stop offset="0%" stop-color="#00ffff"/>   
        <stop offset="100%" stop-color="#0000ff"/>   
    </linearGradient>
    <linearGradient id="blumag" gradientUnits="objectBoundingBox" x1="0" y1="0" x2="0" y2="1">
        <stop offset="0%" stop-color="#0000ff"/>   
        <stop offset="100%" stop-color="#ff00ff"/>   
    </linearGradient>
    <linearGradient id="magred" gradientUnits="objectBoundingBox" x1="0" y1="0" x2="0" y2="1">
        <stop offset="0%" stop-color="#ff00ff"/>   
        <stop offset="100%" stop-color="#ff0000"/>   
    </linearGradient>

    <pattern id="gradient-pattern" width="1" height="1800" patternUnits="userSpaceOnUse">
        <g transform="rotate(0,0,0)">
            <rect x="0" y="0"   width="1" height="300" fill="url(#redyel)" />
            <rect x="0" y="300"  width="1" height="300" fill="url(#yelgre)" />
            <rect x="0" y="600"  width="1" height="300" fill="url(#grecya)" />
            <rect x="0" y="900"  width="1" height="300" fill="url(#cyablu)" />
            <rect x="0" y="1200"  width="1" height="300" fill="url(#blumag)" />
            <rect x="0" y="1500"  width="1" height="300" fill="url(#magred)" />
        </g>
    </pattern>

    <clipPath id="clip1">
        <rect x="1500" y="200" width="2" height="1500" />
    </clipPath>

    <pattern id="striped-pattern" width="10" height="10" patternUnits="userSpaceOnUse">
        <path d="M-4 12L12 -4ZM12 6L6 12ZM-4 2L2 -4" stroke="white" stroke-opacity=".4" stroke-width="1"></path>
    </pattern>

    <clipPath id="diamond">
        <path d="M746.817,850l3.473-2.308l2.002-0.476l1.495,0.989l91.699-132.349h1.001v-1.431l3.455-4.996l-3.467-2.285l3.313-2.488
        l-40.936-51.968V650h-58.527v4.074l-0.024,0.021V650h-58.893v2.713l-41.192,52.438l3.335,2.512h-0.012l0,0l-3.482,2.298
        M780.655,707.688h-26.147v-0.024h-34.366l30.203-45.999L780.655,707.688z M757.986,658.164h41.15l-12.665,43.274L757.986,658.164z
        M713.935,701.892L701.19,658.23h41.406L713.935,701.892z M706.86,707.663h-48.007l35.007-44.562L706.86,707.663z M754.508,715.894
        v-0.037h23.822l-28.217,113.599l-28.116-113.562H754.508z M806.412,662.988l34.912,44.306l-0.281,0.394h-47.717L806.412,662.988z
        M713.333,715.894l27.383,110.571l-76.401-110.571H713.333z M759.848,824.891l27.082-109.034h48.461L759.848,824.891z"/>
    </clipPath>

  </defs>

  <g id="circle" fill="none" transform="translate(100,100)">
    <path vector-effect="non-scaling-stroke" d="M 0,-100 A 100,100 0 0,1 86.6,-50" stroke="url(#redyel)"/>
    <path vector-effect="non-scaling-stroke" d="M 86.6,-50 A 100,100 0 0,1 86.6,50" stroke="url(#yelgre)"/>
    <path vector-effect="non-scaling-stroke" d="M 86.6,50 A 100,100 0 0,1 0,100" stroke="url(#grecya)"/>
    <path vector-effect="non-scaling-stroke" d="M 0,100 A 100,100 0 0,1 -86.6,50" stroke="url(#cyablu)"/>
    <path vector-effect="non-scaling-stroke" d="M -86.6,50 A 100,100 0 0,1 -86.6,-50" stroke="url(#blumag)"/>
    <path vector-effect="non-scaling-stroke" d="M -86.6,-50 A 100,100 0 0,1 0,-100" stroke="url(#magred)"/>
  </g>
</svg>