<svg xmlns="http://www.w3.org/2000/svg" version="1.1" width="0" height="0" viewBox="0 0 200 200" style="position: absolute; margin-left: -100%;">
  <defs>
    <linearGradient id="redyel" gradientUnits="objectBoundingBox" x1="0" y1="0" x2="0" y2="1">
        <stop offset="0%" stop-color="#ff0000"/>   
        <stop offset="100%" stop-color="#ffff00"/>   
    </linearGradient>
    <linearGradient id="yelgre" gradientUnits="objectBoundingBox" x1="0" y1="0" x2="0" y2="1">
        <stop offset="0%" stop-color="#ffff00"/>   
        <stop offset="100%" stop-color="#00ff00"/>   
    </linearGradient>
    <linearGradient id="grecya" gradientUnits="objectBoundingBox" x1="0" y1="0" x2="0" y2="1">
        <stop offset="0%" stop-color="#00ff00"/>   
        <stop offset="100%" stop-color="#00ffff"/>   
    </linearGradient>
    <linearGradient id="cyablu" gradientUnits="objectBoundingBox" x1="0" y1="0" x2="0" y2="1">
        <stop offset="0%" stop-color="#00ffff"/>   
        <stop offset="100%" stop-color="#0000ff"/>   
    </linearGradient>
    <linearGradient id="blumag" gradientUnits="objectBoundingBox" x1="0" y1="0" x2="0" y2="1">
        <stop offset="0%" stop-color="#0000ff"/>   
        <stop offset="100%" stop-color="#ff00ff"/>   
    </linearGradient>
    <linearGradient id="magred" gradientUnits="objectBoundingBox" x1="0" y1="0" x2="0" y2="1">
        <stop offset="0%" stop-color="#ff00ff"/>   
        <stop offset="100%" stop-color="#ff0000"/>   
    </linearGradient>

    <pattern id="gradient-pattern" width="1" height="1800" patternUnits="userSpaceOnUse">
        <g transform="rotate(0,0,0)">
            <rect x="0" y="0"   width="1" height="300" fill="url(#redyel)" />
            <rect x="0" y="300"  width="1" height="300" fill="url(#yelgre)" />
            <rect x="0" y="600"  width="1" height="300" fill="url(#grecya)" />
            <rect x="0" y="900"  width="1" height="300" fill="url(#cyablu)" />
            <rect x="0" y="1200"  width="1" height="300" fill="url(#blumag)" />
            <rect x="0" y="1500"  width="1" height="300" fill="url(#magred)" />
        </g>
    </pattern>

    <clipPath id="clip1">
        <rect x="1500" y="200" width="2" height="1500" />
    </clipPath>

    <pattern id="striped-pattern" width="10" height="10" patternUnits="userSpaceOnUse">
        <path d="M-4 12L12 -4ZM12 6L6 12ZM-4 2L2 -4" stroke="white" stroke-opacity=".4" stroke-width="1"></path>
    </pattern>

    <path id="diamond" d="M15.49,32l0.556-0.369l0.32-0.076l0.239,0.158l14.672-21.176h0.16v-0.229l0.553-0.799l-0.555-0.366l0.531-0.398L25.416,0.43
    V0h-9.364v0.652l-0.004,0.003V0H6.625v0.434l-6.591,8.39l0.534,0.402H0.566l0,0L0.009,9.594 M20.904,9.23h-4.184V9.226h-5.498
    l4.833-7.36L20.904,9.23z M17.277,1.306h6.584l-2.026,6.924L17.277,1.306z M10.229,8.303L8.19,1.317h6.625L10.229,8.303z
     M9.097,9.226H1.416l5.601-7.13L9.097,9.226z M16.721,10.543v-0.006h3.811l-4.514,18.176l-4.499-18.17H16.721z M25.025,2.078
    l5.586,7.089L30.566,9.23h-7.634L25.025,2.078z M10.133,10.543l4.381,17.691L2.29,10.543H10.133z M17.575,27.982l4.333-17.445h7.754
    L17.575,27.982z"/>

  </defs>

  <g id="circle" fill="none" transform="translate(100,100)">
    <path vector-effect="non-scaling-stroke" d="M 0,-100 A 100,100 0 0,1 86.6,-50" stroke="url(#redyel)"/>
    <path vector-effect="non-scaling-stroke" d="M 86.6,-50 A 100,100 0 0,1 86.6,50" stroke="url(#yelgre)"/>
    <path vector-effect="non-scaling-stroke" d="M 86.6,50 A 100,100 0 0,1 0,100" stroke="url(#grecya)"/>
    <path vector-effect="non-scaling-stroke" d="M 0,100 A 100,100 0 0,1 -86.6,50" stroke="url(#cyablu)"/>
    <path vector-effect="non-scaling-stroke" d="M -86.6,50 A 100,100 0 0,1 -86.6,-50" stroke="url(#blumag)"/>
    <path vector-effect="non-scaling-stroke" d="M -86.6,-50 A 100,100 0 0,1 0,-100" stroke="url(#magred)"/>
  </g>
</svg>