<svg xmlns="http://www.w3.org/2000/svg" version="1.1" width="0" height="0" viewBox="0 0 200 200" style="position: absolute; margin-left: -100%;">
  <defs>
    <linearGradient id="redyel" gradientUnits="objectBoundingBox" x1="0" y1="0" x2="0" y2="1">
        <stop offset="0%" stop-color="#ff0000"/>   
        <stop offset="100%" stop-color="#ffff00"/>   
    </linearGradient>
    <linearGradient id="yelgre" gradientUnits="objectBoundingBox" x1="0" y1="0" x2="0" y2="1">
        <stop offset="0%" stop-color="#ffff00"/>   
        <stop offset="100%" stop-color="#00ff00"/>   
    </linearGradient>
    <linearGradient id="grecya" gradientUnits="objectBoundingBox" x1="0" y1="0" x2="0" y2="1">
        <stop offset="0%" stop-color="#00ff00"/>   
        <stop offset="100%" stop-color="#00ffff"/>   
    </linearGradient>
    <linearGradient id="cyablu" gradientUnits="objectBoundingBox" x1="0" y1="0" x2="0" y2="1">
        <stop offset="0%" stop-color="#00ffff"/>   
        <stop offset="100%" stop-color="#0000ff"/>   
    </linearGradient>
    <linearGradient id="blumag" gradientUnits="objectBoundingBox" x1="0" y1="0" x2="0" y2="1">
        <stop offset="0%" stop-color="#0000ff"/>   
        <stop offset="100%" stop-color="#ff00ff"/>   
    </linearGradient>
    <linearGradient id="magred" gradientUnits="objectBoundingBox" x1="0" y1="0" x2="0" y2="1">
        <stop offset="0%" stop-color="#ff00ff"/>   
        <stop offset="100%" stop-color="#ff0000"/>   
    </linearGradient>

    <pattern id="gradient-pattern" width="1" height="1800" patternUnits="userSpaceOnUse">
        <g id="js-gradient">
            <rect x="0" y="0"   width="1" height="300" fill="url(#redyel)" />
            <rect x="0" y="300"  width="1" height="300" fill="url(#yelgre)" />
            <rect x="0" y="600"  width="1" height="300" fill="url(#grecya)" />
            <rect x="0" y="900"  width="1" height="300" fill="url(#cyablu)" />
            <rect x="0" y="1200"  width="1" height="300" fill="url(#blumag)" />
            <rect x="0" y="1500"  width="1" height="300" fill="url(#magred)" />
        </g>
    </pattern>


    <clipPath id="clip1">
        <rect fill="white" x="1800" y="0" width="2" height="3600" />
    </clipPath>

    <pattern id="striped-pattern" width="10" height="10" patternUnits="userSpaceOnUse">
        <path d="M-4 12L12 -4ZM12 6L6 12ZM-4 2L2 -4" stroke="white" stroke-opacity=".4" stroke-width="1"></path>
    </pattern>

    <mask id="mask1">
        <rect fill="white" x="1800" y="0" width="" height="3600" />
    </mask>

    <mask id="mask2">
        <path id="js-path" stroke-dasharray="3600 3600" stroke-dashoffset="0.00" fill="none" stroke="white" stroke-width="4" d="M768.561,2294.939c93.939-48.484,96.97-284.848,103.03-369.697c9.091-100,39.394-275.757-24.243-366.666
        c-42.424,36.364-48.485,121.212-54.545,175.758c-12.121,115.151-24.242,245.454-3.03,363.637
        c51.515,272.727,263.637-57.576,306.061-178.789c3.03,51.516-9.091,245.455,103.03,151.516
        c90.909-72.727-27.272-290.909-100-190.909c-48.484,60.606-63.636,251.515,63.637,181.818
        c51.515-27.272,87.879-100,130.303-142.425c48.485-48.484,103.03-84.848,154.545-130.303
        c-39.394,15.152-121.212,72.728-87.878,118.182c54.545-33.333,75.757-130.303,87.878-187.878
        c6.061,39.394-3.03,178.789,57.576,172.727c39.394-3.03,124.243-139.394,151.516-169.697
        c33.333-36.364,93.939-75.757,112.121-118.182c-60.606-3.03-124.243,136.364-57.576,160.606
        c60.606,18.182,57.576-542.424,57.576-606.061c-21.212,84.849-21.212,172.727-24.243,257.576
        c-3.03,87.879-33.333,296.97,33.333,369.697c103.03,115.151,230.303-175.757,266.666-227.272
        c9.092,63.636,3.031,157.576,48.485,209.091c9.091-66.667-21.212-133.333-30.303-196.97
        c-18.183-106.061-15.151-218.182-30.304-327.272c-9.091,87.878,0,178.788,12.121,266.667
        c12.122,84.849,21.213,233.333,78.788,303.03c72.728-54.545,78.788-196.969,103.03-275.757
        c18.182,45.454,9.092,96.97,36.364,139.394c45.454-27.272,39.394-118.182,60.605-166.667
        c30.304,42.424,57.576,175.757,127.273,175.757c69.696,3.03,133.333-187.878,166.666-236.363
        c39.395,27.272,57.576,145.455,130.304,124.242c75.758-21.212,24.242-103.03-27.273-115.151
        c-87.879-18.182-127.272,142.424-72.727,190.909c87.879,78.788,169.697-269.697,181.818-318.182
        c3.029,24.243,3.029,45.455,0,66.667c-6.061,145.455-9.092,287.878-6.061,433.333c0,100,0,200-3.031,300
        c-3.029,72.729,0,160.605-45.454,224.242c-112.121,145.455-369.697,81.818-493.939-12.121"/>
    </mask>

    <clipPath id="diamond">
        <path d="M1527.456,1182.644c42.784-22.733,92.504-31.867,140.603-26.347c37.884,4.24,74.692,17.676,106.409,38.83
        c35.487,23.536,64.61,56.586,83.403,94.804c24.992,50.203,31.356,109.212,18.269,163.696
        c13.312,4.451,26.196,10.209,38.298,17.322c35.093,20.473,63.713,51.843,80.789,88.713c11.755,25.135,18.037,52.748,18.643,80.47
        v8.072c-0.558,27.218-6.595,54.327-17.907,79.102c-16.771,37.025-45.124,68.647-80.048,89.427
        c-22.324,13.347-47.283,22.249-73.017,26.054c-8.739,1.43-17.608,1.695-26.408,2.484h-628.357
        c-10.346-0.564-20.738-0.851-30.996-2.49c-42.287-6.153-82.321-26.436-112.404-56.764c-32.167-32.023-52.892-75.277-57.499-120.45
        c-0.606-5.778-0.946-11.577-1.103-17.376v-8.052c0.164-5.166,0.436-10.325,0.933-15.464
        c4.152-44.377,23.842-87.031,54.722-119.136c20.929-21.896,46.854-38.966,75.25-49.502c-8.433-33.507-6.643-69.539,5.356-101.958
        c13.959-38.169,41.974-70.927,77.441-90.754c23.842-13.442,50.945-21.01,78.299-21.896c29.757-1.109,59.772,5.663,86.119,19.548
        c20.105,10.55,38.074,25.128,52.585,42.586C1438.274,1252.087,1478.084,1208.568,1527.456,1182.644z M1620.77,1162.381
        c-43.057,3.478-85.003,19.241-119.742,44.915c-35.65,26.177-63.727,62.569-79.83,103.781c-0.599,2.749-4.594,3.6-6.146,1.205
        c-20.364-26.272-48.746-46.269-80.449-56.322c-41.417-13.36-88.06-9.481-126.616,10.733
        c-20.753,10.781-39.17,26.007-53.667,44.356c-15.866,19.989-27.014,43.709-32.187,68.708c-5.302,25.346-4.567,51.938,2.164,76.952
        c0.756,1.824-0.088,4.212-2.103,4.736c-13.905,4.956-27.266,11.455-39.694,19.426c-36.175,23.046-64.359,58.39-78.551,98.887
        c-10.536,29.758-13.551,62.101-8.875,93.308c6.568,45.125,29.92,87.459,64.346,117.312
        c34.691,30.499,80.613,47.827,126.813,47.745c204.649-0.013,409.306-0.006,613.955-0.006c9.991-0.041,20.003,0.251,29.968-0.716
        c35.902-3.028,70.826-16.47,99.561-38.195c34.528-25.897,60.024-63.598,70.941-105.374c7.753-29.369,8.475-60.562,2.109-90.265
        c-5.336-25.061-15.783-49.011-30.443-70.022c-24.23-34.896-60.208-61.487-100.772-74.181c-1.824-0.333-3.314-2.158-2.846-4.036
        c1.083-4.669,2.22-9.325,3.084-14.035c9.984-51.917,1.933-107.15-22.876-153.868c-21.419-40.776-55.09-74.977-95.512-97.043
        C1713.226,1168.249,1666.453,1158.502,1620.77,1162.381z"/>
    </clipPath>

  </defs>

  <g id="circle" fill="none" transform="translate(100,100)">
    <path vector-effect="non-scaling-stroke" d="M 0,-100 A 100,100 0 0,1 86.6,-50" stroke="url(#redyel)"/>
    <path vector-effect="non-scaling-stroke" d="M 86.6,-50 A 100,100 0 0,1 86.6,50" stroke="url(#yelgre)"/>
    <path vector-effect="non-scaling-stroke" d="M 86.6,50 A 100,100 0 0,1 0,100" stroke="url(#grecya)"/>
    <path vector-effect="non-scaling-stroke" d="M 0,100 A 100,100 0 0,1 -86.6,50" stroke="url(#cyablu)"/>
    <path vector-effect="non-scaling-stroke" d="M -86.6,50 A 100,100 0 0,1 -86.6,-50" stroke="url(#blumag)"/>
    <path vector-effect="non-scaling-stroke" d="M -86.6,-50 A 100,100 0 0,1 0,-100" stroke="url(#magred)"/>
  </g>
</svg>