<svg xmlns="http://www.w3.org/2000/svg" version="1.1" width="0" height="0" viewBox="0 0 200 200" style="position: absolute; margin-left: -100%;">
  <defs>
    <linearGradient id="redyel" gradientUnits="objectBoundingBox" x1="0" y1="0" x2="0" y2="1">
        <stop offset="0%" stop-color="#ff0000"/>   
        <stop offset="100%" stop-color="#ffff00"/>   
    </linearGradient>
    <linearGradient id="yelgre" gradientUnits="objectBoundingBox" x1="0" y1="0" x2="0" y2="1">
        <stop offset="0%" stop-color="#ffff00"/>   
        <stop offset="100%" stop-color="#00ff00"/>   
    </linearGradient>
    <linearGradient id="grecya" gradientUnits="objectBoundingBox" x1="0" y1="0" x2="0" y2="1">
        <stop offset="0%" stop-color="#00ff00"/>   
        <stop offset="100%" stop-color="#00ffff"/>   
    </linearGradient>
    <linearGradient id="cyablu" gradientUnits="objectBoundingBox" x1="0" y1="0" x2="0" y2="1">
        <stop offset="0%" stop-color="#00ffff"/>   
        <stop offset="100%" stop-color="#0000ff"/>   
    </linearGradient>
    <linearGradient id="blumag" gradientUnits="objectBoundingBox" x1="0" y1="0" x2="0" y2="1">
        <stop offset="0%" stop-color="#0000ff"/>   
        <stop offset="100%" stop-color="#ff00ff"/>   
    </linearGradient>
    <linearGradient id="magred" gradientUnits="objectBoundingBox" x1="0" y1="0" x2="0" y2="1">
        <stop offset="0%" stop-color="#ff00ff"/>   
        <stop offset="100%" stop-color="#ff0000"/>   
    </linearGradient>

    <pattern id="gradient-pattern" width="1" height="1800" patternUnits="userSpaceOnUse">
        <g id="js-gradient">
            <rect x="0" y="0"   width="1" height="300" fill="url(#redyel)" />
            <rect x="0" y="300"  width="1" height="300" fill="url(#yelgre)" />
            <rect x="0" y="600"  width="1" height="300" fill="url(#grecya)" />
            <rect x="0" y="900"  width="1" height="300" fill="url(#cyablu)" />
            <rect x="0" y="1200"  width="1" height="300" fill="url(#blumag)" />
            <rect x="0" y="1500"  width="1" height="300" fill="url(#magred)" />
        </g>
    </pattern>


    <clipPath id="clip1">
        <rect x="1500" y="0" width="2" height="3000" />
    </clipPath>

    <pattern id="striped-pattern" width="10" height="10" patternUnits="userSpaceOnUse">
        <path d="M-4 12L12 -4ZM12 6L6 12ZM-4 2L2 -4" stroke="white" stroke-opacity=".4" stroke-width="1"></path>
    </pattern>

    <mask stroke="white" stroke-width="20px" id="diamond1">
       <path stroke="white" stoke-width="10" stroke-miterlimit="10" d="M714.165,1593.969
    c-31.413,32.293,12.518,54.427,12.518,54.427c0.854,0.43,2.254,1.124,3.111,1.543l615.959,300.777
    c0.858,0.419,2.251,1.125,3.099,1.569c0,0,21.047,11.064,41.123,11.064c21.332,0,45.014-13.187,45.014-13.187
    c0.835-0.466,2.202-1.229,3.032-1.696l884.612-497.367c0.834-0.467,2.165-1.286,2.958-1.817c0,0,8.007-5.364,13.371-12.643
    c9.888-13.423,9.94-34.458-14.814-45.978"/>
<path stroke="white" stoke-width="10" stroke-miterlimit="10" d="M1684.653,1155.149
    c0.907,0.296,2.386,0.808,3.283,1.138l629.16,231.442c0.897,0.33,2.365,0.865,3.265,1.189c0,0,18.601,6.7,18.601,16.353
    c0,10.424-13.255,16.932-13.255,16.932c-0.857,0.42-2.243,1.147-3.076,1.614l-884.606,495.695c-0.835,0.467-2.185,1.256-2.999,1.755
    c0,0-21.5,13.126-45.052,13.126c-24.129,0-42.551-8.688-42.551-8.688c-0.864-0.406-2.274-1.082-3.134-1.499l-620.607-301.29
    c-0.86-0.419-2.245-1.143-3.078-1.609c0,0-11.77-6.588-11.77-17.88c0-8.542,13.78-15.187,13.78-15.187
    c0.862-0.415,2.272-1.09,3.134-1.501l900.825-429.647c0.861-0.411,2.288-1.05,3.169-1.42c0,0,11.959-5.021,29.139-5.021
    C1670.848,1150.651,1684.653,1155.149,1684.653,1155.149L1684.653,1155.149z"/>
<path stroke="white" stoke-width="10" stroke-miterlimit="10" d="M1616.006,1190.594
    c0.859-0.416,2.295-0.478,3.188-0.14l623.746,236.595c0.893,0.339,0.942,0.996,0.107,1.46l-803.041,446.448
    c-0.835,0.463-2.224,0.509-3.086,0.1L813.777,1579.75c-0.864-0.409-0.866-1.084-0.004-1.499L1616.006,1190.594z"/>
<path stroke="white" stoke-width="10" stroke-miterlimit="10" d="M1962.435,1287.082c0,1.946-3.175,3.523-7.093,3.523
    c-3.919,0-7.094-1.578-7.094-3.523c0-1.945,3.175-3.522,7.094-3.522C1959.26,1283.559,1962.435,1285.137,1962.435,1287.082z"/>
<path stroke="white" stoke-width="10" stroke-miterlimit="10" d="M1052.939,1749.062l7.52,3.578
    c0,0,1.637,1.069,3.568,1.069c1.834,0,3.516-1.079,3.516-1.079l8.79-4.508c0,0,1.543-0.732,1.581-1.473
    c0.042-0.76-1.496-1.426-1.496-1.426l-7.624-3.976c0,0-2.052-0.951-3.423-0.968c-1.356-0.017-3.516,1.176-3.516,1.176l-7.575,4.05
    c0,0-2.438,1.108-2.681,1.831C1051.284,1748.283,1052.939,1749.062,1052.939,1749.062L1052.939,1749.062z"/>
<path stroke="white" stoke-width="10" stroke-miterlimit="10" d="M1096.599,1742.18
    c0.961,9.279-12.617,18.289-30.329,20.121c-17.708,1.831-32.844-4.206-33.804-13.486c-0.959-9.279,12.619-18.286,30.329-20.118
    C1080.505,1726.864,1095.64,1732.9,1096.599,1742.18z"/>
<path stroke="white" stoke-width="10" stroke-miterlimit="10" d="M2160.668,1542.165c0,0-2.007-4.376,6.97-9.347
    c8.976-4.968,27.508-15.537,27.508-15.537s7.524-3.049,8.247,0.86L2160.668,1542.165z"/>
<path stroke="white" stoke-width="10" stroke-miterlimit="10" d="M2206.996,1516.104c0,0-2.006-4.375,6.971-9.344
    c8.977-4.97,24.033-13.801,24.033-13.801s7.525-3.049,8.248,0.86L2206.996,1516.104L2206.996,1516.104z"/>
<path stroke="white" stoke-width="10" stroke-miterlimit="10" d="M2284.307,1472.649l-11.803,6.636
    c0,0-5.963-2.221,4.297-7.608C2284.797,1467.478,2284.307,1472.649,2284.307,1472.649L2284.307,1472.649z"/>
<path stroke="white" stoke-width="10" stroke-miterlimit="10" d="M1041.828,1792.992
    c1.127,0.606,1.549,2.011,0.945,3.137l0,0c-0.606,1.127-2.01,1.549-3.138,0.944l-34.304-16.905
    c-1.125-0.604-1.549-2.009-0.944-3.137l0,0c0.606-1.125,2.01-1.549,3.138-0.944L1041.828,1792.992z"/>
<path stroke="white" stoke-width="10" stroke-miterlimit="10" d="M707.492,1603.231c0,0-11.302,14.829,13.793,27.087
    l618.21,301.143c0,0,45.315,28.088,99.03-1.738l895.03-501.808c0,0,18.628-9.556,5.406-24.322"/>
    </mask>

    <clipPath id="diamond">
        <path d="M1527.456,1182.644c42.784-22.733,92.504-31.867,140.603-26.347c37.884,4.24,74.692,17.676,106.409,38.83
        c35.487,23.536,64.61,56.586,83.403,94.804c24.992,50.203,31.356,109.212,18.269,163.696
        c13.312,4.451,26.196,10.209,38.298,17.322c35.093,20.473,63.713,51.843,80.789,88.713c11.755,25.135,18.037,52.748,18.643,80.47
        v8.072c-0.558,27.218-6.595,54.327-17.907,79.102c-16.771,37.025-45.124,68.647-80.048,89.427
        c-22.324,13.347-47.283,22.249-73.017,26.054c-8.739,1.43-17.608,1.695-26.408,2.484h-628.357
        c-10.346-0.564-20.738-0.851-30.996-2.49c-42.287-6.153-82.321-26.436-112.404-56.764c-32.167-32.023-52.892-75.277-57.499-120.45
        c-0.606-5.778-0.946-11.577-1.103-17.376v-8.052c0.164-5.166,0.436-10.325,0.933-15.464
        c4.152-44.377,23.842-87.031,54.722-119.136c20.929-21.896,46.854-38.966,75.25-49.502c-8.433-33.507-6.643-69.539,5.356-101.958
        c13.959-38.169,41.974-70.927,77.441-90.754c23.842-13.442,50.945-21.01,78.299-21.896c29.757-1.109,59.772,5.663,86.119,19.548
        c20.105,10.55,38.074,25.128,52.585,42.586C1438.274,1252.087,1478.084,1208.568,1527.456,1182.644z M1620.77,1162.381
        c-43.057,3.478-85.003,19.241-119.742,44.915c-35.65,26.177-63.727,62.569-79.83,103.781c-0.599,2.749-4.594,3.6-6.146,1.205
        c-20.364-26.272-48.746-46.269-80.449-56.322c-41.417-13.36-88.06-9.481-126.616,10.733
        c-20.753,10.781-39.17,26.007-53.667,44.356c-15.866,19.989-27.014,43.709-32.187,68.708c-5.302,25.346-4.567,51.938,2.164,76.952
        c0.756,1.824-0.088,4.212-2.103,4.736c-13.905,4.956-27.266,11.455-39.694,19.426c-36.175,23.046-64.359,58.39-78.551,98.887
        c-10.536,29.758-13.551,62.101-8.875,93.308c6.568,45.125,29.92,87.459,64.346,117.312
        c34.691,30.499,80.613,47.827,126.813,47.745c204.649-0.013,409.306-0.006,613.955-0.006c9.991-0.041,20.003,0.251,29.968-0.716
        c35.902-3.028,70.826-16.47,99.561-38.195c34.528-25.897,60.024-63.598,70.941-105.374c7.753-29.369,8.475-60.562,2.109-90.265
        c-5.336-25.061-15.783-49.011-30.443-70.022c-24.23-34.896-60.208-61.487-100.772-74.181c-1.824-0.333-3.314-2.158-2.846-4.036
        c1.083-4.669,2.22-9.325,3.084-14.035c9.984-51.917,1.933-107.15-22.876-153.868c-21.419-40.776-55.09-74.977-95.512-97.043
        C1713.226,1168.249,1666.453,1158.502,1620.77,1162.381z"/>
    </clipPath>

  </defs>

  <g id="circle" fill="none" transform="translate(100,100)">
    <path vector-effect="non-scaling-stroke" d="M 0,-100 A 100,100 0 0,1 86.6,-50" stroke="url(#redyel)"/>
    <path vector-effect="non-scaling-stroke" d="M 86.6,-50 A 100,100 0 0,1 86.6,50" stroke="url(#yelgre)"/>
    <path vector-effect="non-scaling-stroke" d="M 86.6,50 A 100,100 0 0,1 0,100" stroke="url(#grecya)"/>
    <path vector-effect="non-scaling-stroke" d="M 0,100 A 100,100 0 0,1 -86.6,50" stroke="url(#cyablu)"/>
    <path vector-effect="non-scaling-stroke" d="M -86.6,50 A 100,100 0 0,1 -86.6,-50" stroke="url(#blumag)"/>
    <path vector-effect="non-scaling-stroke" d="M -86.6,-50 A 100,100 0 0,1 0,-100" stroke="url(#magred)"/>
  </g>
</svg>